<svg width="267" height="87" viewBox="0 0 267 87" fill="none" xmlns="http://www.w3.org/2000/svg">
<path d="M43.89 32.76C43.89 34.296 44.914 35.32 46.45 35.32C50.802 35.32 54.13 30.968 54.13 22.52C54.13 22.008 54.002 21.496 54.002 20.984C47.346 25.208 43.89 29.432 43.89 32.76ZM116.85 2.04C119.154 2.04 120.69 3.96 120.69 5.88C120.69 7.8 119.41 18.04 119.41 25.08C119.41 33.528 121.074 35.32 125.81 35.32C127.858 35.32 129.65 37.112 129.65 39.16C129.65 41.208 127.858 43 125.81 43C117.106 43 112.882 36.856 111.986 29.304C108.402 34.04 103.282 37.88 96.37 37.88C85.106 37.88 78.45 29.176 78.45 18.68C78.45 15.608 78.578 12.792 78.834 10.104C73.714 11.768 67.314 14.072 61.17 17.016C61.554 18.808 61.81 20.728 61.81 22.52C61.81 31.992 57.458 43 46.45 43C40.818 43 36.21 38.392 36.21 32.76C36.21 24.184 43.89 18.04 51.442 13.56C49.266 10.36 46.066 8.44 42.61 8.44C32.626 8.44 17.778 23.288 7.538 41.08C6.898 42.36 5.49 43 4.21 43C1.906 43 0.37 41.08 0.37 39.16C0.37 38.52 0.498 37.88 0.882 37.24C11.122 19.192 26.994 0.759998 42.61 0.759998C49.394 0.759998 55.026 4.856 58.226 9.976C67.954 5.368 78.194 2.168 82.546 0.887997C82.93 0.759998 83.314 0.759998 83.698 0.759998C85.874 0.759998 87.41 2.68 87.41 4.6C87.41 4.856 87.282 5.112 87.282 5.368C86.258 10.232 86.13 13.688 86.13 18.68C86.13 26.104 89.714 30.2 96.37 30.2C107.89 30.2 112.498 8.952 113.01 5.368C113.266 3.576 114.93 2.04 116.85 2.04ZM244.88 12.28C244.88 9.848 243.472 8.44 241.04 8.44C236.176 8.44 233.36 12.024 233.36 18.68C233.36 20.472 233.872 23.032 234.896 25.848C241.168 21.112 244.88 15.864 244.88 12.28ZM234.64 72.44C234.64 76.024 237.328 78.84 239.76 78.84C243.6 78.84 246.16 76.024 246.16 71.16C246.16 67.832 244.368 62.712 241.68 57.08C236.688 63.096 234.64 68.6 234.64 72.44ZM262.8 31.48C264.72 31.48 266.64 33.016 266.64 35.32C266.64 36.6 265.872 37.88 264.72 38.648C257.68 42.744 251.92 47.096 247.44 51.192C250.896 58.104 253.84 64.888 253.84 71.16C253.84 79.096 248.72 86.52 239.76 86.52C231.952 86.52 226.96 79.096 226.96 72.44C226.96 65.272 230.928 57.464 237.968 49.784C235.792 45.688 233.488 41.336 231.44 37.112C224.784 40.696 217.616 43 211.6 43C199.952 43 195.984 34.168 194.96 25.464C193.936 16.248 192.912 14.84 191.12 14.84C187.664 14.84 184.464 18.68 180.496 26.744C177.04 33.784 173.2 43 164.24 43C155.024 43 154.512 32.504 154 28.024C153.232 20.984 152.464 19.96 151.44 19.96C150.16 19.96 148.24 22.392 145.296 28.152C142.736 33.144 137.36 43 125.84 43C123.792 43 122 41.208 122 39.16C122 37.112 123.792 35.32 125.84 35.32C132.24 35.32 135.568 29.816 138.384 24.568C140.56 20.344 143.76 12.28 151.44 12.28C160.656 12.28 161.168 22.776 161.68 27.256C162.448 34.296 163.216 35.32 164.24 35.32C166.8 35.32 169.36 31.736 173.584 23.416C177.296 16.12 181.776 7.16 191.12 7.16C200.848 7.16 201.872 17.784 202.64 24.696C203.408 32.12 205.328 35.32 211.6 35.32C215.696 35.32 222.096 33.4 228.24 30.072C226.704 26.232 225.68 22.392 225.68 18.68C225.68 9.976 230.544 0.759998 241.04 0.759998C247.568 0.759998 252.56 5.752 252.56 12.28C252.56 20.728 245.52 27.896 237.968 33.144C239.632 36.6 241.68 40.44 243.728 44.152C248.464 40.056 254.224 35.96 260.88 31.992C261.52 31.608 262.16 31.48 262.8 31.48Z" fill="#212121"/>
<path d="M54.002 20.984H54.252V20.5293L53.868 20.7729L54.002 20.984ZM111.986 29.304L112.234 29.2745L112.161 28.6583L111.787 29.1531L111.986 29.304ZM78.834 10.104L79.0829 10.1277L79.119 9.74851L78.7567 9.86624L78.834 10.104ZM61.17 17.016L61.062 16.7905L60.8843 16.8757L60.9256 17.0684L61.17 17.016ZM51.442 13.56L51.5695 13.775L51.7983 13.6393L51.6487 13.4194L51.442 13.56ZM7.53799 41.08L7.32132 40.9553L7.31767 40.9616L7.31439 40.9682L7.53799 41.08ZM0.882004 37.24L1.09644 37.3687L1.09944 37.3634L0.882004 37.24ZM58.226 9.976L58.014 10.1085L58.1319 10.2972L58.333 10.2019L58.226 9.976ZM82.546 0.887997L82.6166 1.12799L82.6251 1.12517L82.546 0.887997ZM87.282 5.368L87.5266 5.4195L87.532 5.39403V5.368H87.282ZM113.01 5.368L112.763 5.33265L113.01 5.368ZM43.64 32.76C43.64 33.5848 43.916 34.2916 44.4172 34.7928C44.9184 35.294 45.6252 35.57 46.45 35.57V35.07C45.7388 35.07 45.1656 34.834 44.7708 34.4392C44.376 34.0444 44.14 33.4712 44.14 32.76H43.64ZM46.45 35.57C48.7218 35.57 50.7165 34.4292 52.1324 32.223C53.5431 30.025 54.38 26.7724 54.38 22.52H53.88C53.88 26.7156 53.0529 29.863 51.7116 31.953C50.3755 34.0348 48.5302 35.07 46.45 35.07V35.57ZM54.38 22.52C54.38 22.2458 54.3457 21.9743 54.3141 21.721C54.2817 21.4623 54.252 21.2218 54.252 20.984H53.752C53.752 21.2582 53.7863 21.5297 53.8179 21.783C53.8503 22.0417 53.88 22.2822 53.88 22.52H54.38ZM53.868 20.7729C50.5266 22.8934 47.9767 25.0211 46.2593 27.0463C44.5453 29.0676 43.64 31.0116 43.64 32.76H44.14C44.14 31.1804 44.9627 29.3484 46.6407 27.3697C48.3153 25.3949 50.8214 23.2986 54.136 21.1951L53.868 20.7729ZM116.85 2.29C119 2.29 120.44 4.08154 120.44 5.88H120.94C120.94 3.83846 119.308 1.79 116.85 1.79V2.29ZM120.44 5.88C120.44 6.34608 120.361 7.33262 120.241 8.6777C120.121 10.0152 119.961 11.6985 119.801 13.5383C119.481 17.2187 119.16 21.5482 119.16 25.08H119.66C119.66 21.5718 119.979 17.2613 120.299 13.5817C120.459 11.7415 120.619 10.0648 120.739 8.7223C120.859 7.38738 120.94 6.37392 120.94 5.88H120.44ZM119.16 25.08C119.16 29.3001 119.571 31.933 120.626 33.5072C121.706 35.1185 123.418 35.57 125.81 35.57V35.07C123.466 35.07 121.978 34.6255 121.042 33.2288C120.081 31.795 119.66 29.3079 119.66 25.08H119.16ZM125.81 35.57C127.72 35.57 129.4 37.2501 129.4 39.16H129.9C129.9 36.9739 127.996 35.07 125.81 35.07V35.57ZM129.4 39.16C129.4 41.0699 127.72 42.75 125.81 42.75V43.25C127.996 43.25 129.9 41.3461 129.9 39.16H129.4ZM125.81 42.75C121.523 42.75 118.36 41.2398 116.155 38.8158C113.944 36.3854 112.678 33.016 112.234 29.2745L111.738 29.3335C112.19 33.144 113.484 36.6226 115.785 39.1522C118.092 41.6882 121.393 43.25 125.81 43.25V42.75ZM111.787 29.1531C108.231 33.8516 103.177 37.63 96.37 37.63V38.13C103.387 38.13 108.573 34.2284 112.185 29.4549L111.787 29.1531ZM96.37 37.63C90.8074 37.63 86.3966 35.4831 83.3736 32.0508C80.3476 28.6149 78.7 23.8764 78.7 18.68H78.2C78.2 23.9796 79.8804 28.8411 82.9984 32.3812C86.1194 35.9249 90.6686 38.13 96.37 38.13V37.63ZM78.7 18.68C78.7 15.615 78.8277 12.807 79.0829 10.1277L78.5851 10.0803C78.3283 12.777 78.2 15.601 78.2 18.68H78.7ZM78.7567 9.86624C73.6314 11.532 67.2199 13.8399 61.062 16.7905L61.278 17.2415C67.4081 14.3041 73.7966 12.004 78.9113 10.3418L78.7567 9.86624ZM60.9256 17.0684C61.307 18.8483 61.56 20.7502 61.56 22.52H62.06C62.06 20.7058 61.801 18.7677 61.4145 16.9636L60.9256 17.0684ZM61.56 22.52C61.56 27.2235 60.4785 32.2938 58.0461 36.1793C55.6201 40.0547 51.8542 42.75 46.45 42.75V43.25C52.0538 43.25 55.968 40.4413 58.4699 36.4447C60.9655 32.4582 62.06 27.2884 62.06 22.52H61.56ZM46.45 42.75C40.9561 42.75 36.46 38.2539 36.46 32.76H35.96C35.96 38.5301 40.6799 43.25 46.45 43.25V42.75ZM36.46 32.76C36.46 28.5529 38.3422 24.93 41.1795 21.7917C44.0187 18.6511 47.8017 16.0102 51.5695 13.775L51.3145 13.345C47.5303 15.5898 43.6974 18.2609 40.8085 21.4563C37.9178 24.654 35.96 28.3911 35.96 32.76H36.46ZM51.6487 13.4194C49.4356 10.1648 46.1642 8.19 42.61 8.19V8.69C45.9678 8.69 49.0964 10.5552 51.2353 13.7006L51.6487 13.4194ZM42.61 8.19C40.0549 8.19 37.2115 9.13876 34.235 10.8203C31.2562 12.5032 28.1278 14.9293 24.9977 17.9069C18.7375 23.8621 12.4513 32.042 7.32132 40.9553L7.75467 41.2047C12.8647 32.326 19.1225 24.1859 25.3423 18.2691C28.4522 15.3107 31.5478 12.9128 34.481 11.2557C37.4165 9.59724 40.1732 8.69 42.61 8.69V8.19ZM7.31439 40.9682C6.72643 42.1441 5.4191 42.75 4.21001 42.75V43.25C5.5609 43.25 7.06958 42.5759 7.76161 41.1918L7.31439 40.9682ZM4.21001 42.75C2.06004 42.75 0.619995 40.9585 0.619995 39.16H0.119995C0.119995 41.2015 1.75197 43.25 4.21001 43.25V42.75ZM0.619995 39.16C0.619995 38.5562 0.739975 37.9626 1.09637 37.3686L0.667633 37.1114C0.256027 37.7974 0.119995 38.4838 0.119995 39.16H0.619995ZM1.09944 37.3634C6.21155 28.3533 12.7255 19.2551 19.9025 12.4129C27.0855 5.56512 34.8979 1.01 42.61 1.01V0.509998C34.7061 0.509998 26.7745 5.17087 19.5575 12.0511C12.3345 18.9369 5.79245 28.0787 0.664566 37.1166L1.09944 37.3634ZM42.61 1.01C49.2884 1.01 54.8483 5.04345 58.014 10.1085L58.438 9.8435C55.2037 4.66855 49.4996 0.509998 42.61 0.509998V1.01ZM58.333 10.2019C68.0434 5.60228 78.2688 2.4066 82.6165 1.12784L82.4755 0.648155C78.1192 1.9294 67.8646 5.13372 58.119 9.75006L58.333 10.2019ZM82.6251 1.12517C82.9647 1.01197 83.3084 1.01 83.698 1.01V0.509998C83.3196 0.509998 82.8954 0.508026 82.4669 0.650826L82.6251 1.12517ZM83.698 1.01C85.7145 1.01 87.16 2.79566 87.16 4.6H87.66C87.66 2.56433 86.0335 0.509998 83.698 0.509998V1.01ZM87.16 4.6C87.16 4.69185 87.1369 4.7895 87.1035 4.92337C87.0729 5.0455 87.032 5.20385 87.032 5.368H87.532C87.532 5.27615 87.5551 5.1785 87.5885 5.04463C87.6191 4.9225 87.66 4.76415 87.66 4.6H87.16ZM87.0374 5.3165C86.0081 10.2053 85.88 13.6811 85.88 18.68H86.38C86.38 13.6948 86.5079 10.2587 87.5266 5.4195L87.0374 5.3165ZM85.88 18.68C85.88 22.4286 86.7846 25.3765 88.5668 27.3897C90.3534 29.4079 92.9891 30.45 96.37 30.45V29.95C93.0949 29.95 90.6106 28.9441 88.9412 27.0583C87.2674 25.1675 86.38 22.3554 86.38 18.68H85.88ZM96.37 30.45C99.3345 30.45 101.842 29.081 103.934 27.0013C106.024 24.9241 107.711 22.1266 109.045 19.2327C111.714 13.4451 112.999 7.21239 113.257 5.40335L112.763 5.33265C112.509 7.1076 111.234 13.2909 108.591 19.0233C107.269 21.8894 105.612 24.6279 103.582 26.6467C101.554 28.663 99.1655 29.95 96.37 29.95V30.45ZM113.257 5.40335C113.496 3.73043 115.059 2.29 116.85 2.29V1.79C114.802 1.79 113.036 3.42156 112.763 5.33265L113.257 5.40335ZM234.896 25.848L234.661 25.9334L234.777 26.2514L235.047 26.0475L234.896 25.848ZM241.68 57.08L241.906 56.9723L241.737 56.6195L241.488 56.9204L241.68 57.08ZM264.72 38.648L264.846 38.8641L264.852 38.8602L264.859 38.856L264.72 38.648ZM247.44 51.192L247.271 51.0075L247.132 51.1349L247.216 51.3038L247.44 51.192ZM237.968 49.784L238.152 49.9529L238.272 49.8227L238.189 49.6667L237.968 49.784ZM231.44 37.112L231.665 37.0029L231.551 36.7682L231.321 36.8919L231.44 37.112ZM194.96 25.464L194.712 25.4916L194.712 25.4932L194.96 25.464ZM180.496 26.744L180.272 26.6336L180.272 26.6338L180.496 26.744ZM154 28.024L153.751 28.0511L153.752 28.0524L154 28.024ZM145.296 28.152L145.518 28.2661L145.519 28.2658L145.296 28.152ZM138.384 24.568L138.604 24.6862L138.606 24.6825L138.384 24.568ZM161.68 27.256L161.929 27.2289L161.928 27.2276L161.68 27.256ZM173.584 23.416L173.361 23.3026L173.361 23.3028L173.584 23.416ZM202.64 24.696L202.889 24.6703L202.888 24.6684L202.64 24.696ZM228.24 30.072L228.359 30.2918L228.555 30.1858L228.472 29.9791L228.24 30.072ZM237.968 33.144L237.825 32.9387L237.65 33.0604L237.743 33.2525L237.968 33.144ZM243.728 44.152L243.509 44.2728L243.658 44.5429L243.892 44.3411L243.728 44.152ZM260.88 31.992L261.008 32.2067L261.009 32.2064L260.88 31.992ZM245.13 12.28C245.13 11.0161 244.763 9.98571 244.049 9.27122C243.334 8.55673 242.304 8.19 241.04 8.19V8.69C242.208 8.69 243.098 9.02727 243.695 9.62477C244.293 10.2223 244.63 11.1119 244.63 12.28H245.13ZM241.04 8.19C238.54 8.19 236.542 9.11502 235.177 10.9128C233.82 12.7004 233.11 15.3218 233.11 18.68H233.61C233.61 15.3822 234.308 12.8836 235.575 11.2152C236.834 9.55698 238.676 8.69 241.04 8.69V8.19ZM233.11 18.68C233.11 20.5113 233.631 23.1016 234.661 25.9334L235.131 25.7626C234.113 22.9624 233.61 20.4327 233.61 18.68H233.11ZM235.047 26.0475C238.198 23.668 240.713 21.155 242.442 18.7791C244.167 16.4099 245.13 14.1495 245.13 12.28H244.63C244.63 13.9945 243.737 16.1501 242.038 18.4849C240.343 20.813 237.866 23.292 234.745 25.6485L235.047 26.0475ZM234.39 72.44C234.39 74.2946 235.085 75.9511 236.097 77.1456C237.106 78.3357 238.45 79.09 239.76 79.09V78.59C238.638 78.59 237.422 77.9363 236.479 76.8224C235.539 75.7129 234.89 74.1694 234.89 72.44H234.39ZM239.76 79.09C241.745 79.09 243.418 78.3597 244.59 76.9863C245.759 75.6172 246.41 73.6338 246.41 71.16H245.91C245.91 73.5502 245.281 75.4068 244.21 76.6617C243.142 77.9123 241.615 78.59 239.76 78.59V79.09ZM246.41 71.16C246.41 69.4573 245.953 67.3161 245.166 64.9064C244.377 62.493 243.253 59.7946 241.906 56.9723L241.454 57.1877C242.795 59.9974 243.911 62.675 244.69 65.0616C245.471 67.4519 245.91 69.5347 245.91 71.16H246.41ZM241.488 56.9204C236.474 62.9621 234.39 68.5209 234.39 72.44H234.89C234.89 68.6791 236.902 63.2299 241.872 57.2396L241.488 56.9204ZM262.8 31.73C264.598 31.73 266.39 33.17 266.39 35.32H266.89C266.89 32.862 264.842 31.23 262.8 31.23V31.73ZM266.39 35.32C266.39 36.503 265.676 37.7104 264.581 38.44L264.859 38.856C266.068 38.0496 266.89 36.697 266.89 35.32H266.39ZM264.594 38.4319C257.539 42.5367 251.765 46.8992 247.271 51.0075L247.609 51.3765C252.075 47.2928 257.821 42.9513 264.846 38.8641L264.594 38.4319ZM247.216 51.3038C250.674 58.22 253.59 64.9546 253.59 71.16H254.09C254.09 64.8214 251.118 57.988 247.664 51.0802L247.216 51.3038ZM253.59 71.16C253.59 78.9997 248.544 86.27 239.76 86.27V86.77C248.896 86.77 254.09 79.1923 254.09 71.16H253.59ZM239.76 86.27C232.132 86.27 227.21 79.0043 227.21 72.44H226.71C226.71 79.1877 231.772 86.77 239.76 86.77V86.27ZM227.21 72.44C227.21 65.3619 231.132 57.612 238.152 49.9529L237.784 49.6151C230.724 57.316 226.71 65.1822 226.71 72.44H227.21ZM238.189 49.6667C236.013 45.5703 233.711 41.2222 231.665 37.0029L231.215 37.2211C233.265 41.4498 235.571 45.8057 237.747 49.9013L238.189 49.6667ZM231.321 36.8919C224.686 40.4647 217.56 42.75 211.6 42.75V43.25C217.672 43.25 224.882 40.9273 231.559 37.3321L231.321 36.8919ZM211.6 42.75C205.849 42.75 202.019 40.5747 199.493 37.342C196.957 34.0973 195.718 29.7651 195.208 25.4348L194.712 25.4932C195.226 29.8669 196.483 34.3027 199.099 37.6499C201.725 41.0093 205.703 43.25 211.6 43.25V42.75ZM195.208 25.4364C194.697 20.831 194.182 18.1424 193.56 16.6023C193.247 15.8291 192.897 15.3189 192.483 15.0048C192.062 14.6858 191.603 14.59 191.12 14.59V15.09C191.533 15.09 191.874 15.1702 192.181 15.4032C192.495 15.6411 192.801 16.0589 193.096 16.7897C193.69 18.2576 194.199 20.881 194.712 25.4916L195.208 25.4364ZM191.12 14.59C189.289 14.59 187.562 15.6099 185.812 17.6031C184.062 19.5963 182.258 22.5961 180.272 26.6336L180.72 26.8544C182.702 22.8279 184.482 19.8757 186.188 17.9329C187.894 15.9901 189.495 15.09 191.12 15.09V14.59ZM180.272 26.6338C178.537 30.1677 176.727 34.1996 174.236 37.3572C171.752 40.5047 168.618 42.75 164.24 42.75V43.25C168.822 43.25 172.088 40.8873 174.628 37.6668C177.161 34.4564 178.999 30.3603 180.72 26.8542L180.272 26.6338ZM164.24 42.75C161.987 42.75 160.282 42.1099 158.978 41.0928C157.669 40.0729 156.747 38.6612 156.086 37.0948C154.76 33.9524 154.506 30.2539 154.248 27.9956L153.752 28.0524C154.006 30.2741 154.264 34.0636 155.626 37.2892C156.309 38.9068 157.275 40.3991 158.67 41.4872C160.07 42.5781 161.885 43.25 164.24 43.25V42.75ZM154.249 27.9969C153.865 24.4775 153.478 22.4338 153.051 21.266C152.837 20.6816 152.603 20.2899 152.332 20.0445C152.049 19.7892 151.745 19.71 151.44 19.71V20.21C151.647 20.21 151.823 20.2588 151.996 20.4155C152.181 20.5821 152.379 20.8864 152.581 21.438C152.986 22.5422 153.367 24.5305 153.751 28.0511L154.249 27.9969ZM151.44 19.71C151.041 19.71 150.627 19.8985 150.2 20.2332C149.77 20.5697 149.303 21.0722 148.793 21.7449C147.771 23.0906 146.547 25.1543 145.073 28.0382L145.519 28.2658C146.989 25.3897 148.197 23.3574 149.191 22.0471C149.689 21.3918 150.126 20.9263 150.508 20.6268C150.893 20.3255 151.199 20.21 151.44 20.21V19.71ZM145.074 28.0379C142.507 33.0427 137.193 42.75 125.84 42.75V43.25C137.527 43.25 142.965 33.2453 145.518 28.2661L145.074 28.0379ZM125.84 42.75C123.93 42.75 122.25 41.0699 122.25 39.16H121.75C121.75 41.3461 123.654 43.25 125.84 43.25V42.75ZM122.25 39.16C122.25 37.2501 123.93 35.57 125.84 35.57V35.07C123.654 35.07 121.75 36.9739 121.75 39.16H122.25ZM125.84 35.57C129.123 35.57 131.616 34.1544 133.635 32.0866C135.646 30.0264 137.197 27.3091 138.604 24.6862L138.164 24.4498C136.755 27.0749 135.234 29.7336 133.277 31.7374C131.328 33.7336 128.957 35.07 125.84 35.07V35.57ZM138.606 24.6825C139.704 22.551 141.032 19.5145 143.043 16.996C145.047 14.487 147.703 12.53 151.44 12.53V12.03C147.497 12.03 144.713 14.105 142.653 16.684C140.6 19.2535 139.24 22.3609 138.162 24.4535L138.606 24.6825ZM151.44 12.53C153.693 12.53 155.398 13.1701 156.702 14.1872C158.011 15.2071 158.932 16.6188 159.594 18.1852C160.92 21.3276 161.174 25.0261 161.432 27.2844L161.928 27.2276C161.674 25.0059 161.416 21.2164 160.054 17.9908C159.372 16.3732 158.405 14.8809 157.01 13.7928C155.61 12.7019 153.795 12.03 151.44 12.03V12.53ZM161.431 27.2831C161.815 30.8025 162.202 32.8462 162.629 34.014C162.843 34.5984 163.077 34.9901 163.348 35.2355C163.631 35.4908 163.935 35.57 164.24 35.57V35.07C164.033 35.07 163.857 35.0212 163.684 34.8645C163.499 34.6979 163.301 34.3936 163.099 33.842C162.694 32.7378 162.313 30.7495 161.929 27.2289L161.431 27.2831ZM164.24 35.57C165.645 35.57 166.991 34.5861 168.486 32.6404C169.99 30.6843 171.695 27.6899 173.807 23.5292L173.361 23.3028C171.249 27.4621 169.562 30.4197 168.09 32.3356C166.609 34.2619 165.395 35.07 164.24 35.07V35.57ZM173.807 23.5294C175.666 19.8746 177.701 15.8406 180.428 12.7164C183.149 9.60033 186.542 7.41 191.12 7.41V6.91C186.354 6.91 182.835 9.19967 180.052 12.3876C177.275 15.5674 175.214 19.6614 173.361 23.3026L173.807 23.5294ZM191.12 7.41C193.503 7.41 195.337 8.05952 196.766 9.12819C198.198 10.1993 199.239 11.7037 200.012 13.4377C201.561 16.9151 202.006 21.2565 202.392 24.7236L202.888 24.6684C202.506 21.2235 202.055 16.7969 200.468 13.2343C199.673 11.4483 198.586 9.86474 197.066 8.72781C195.543 7.58847 193.601 6.91 191.12 6.91V7.41ZM202.391 24.7217C202.776 28.4379 203.452 31.158 204.86 32.9466C206.284 34.7568 208.42 35.57 211.6 35.57V35.07C208.508 35.07 206.548 34.2832 205.252 32.6374C203.94 30.97 203.272 28.3781 202.889 24.6703L202.391 24.7217ZM211.6 35.57C215.754 35.57 222.196 33.63 228.359 30.2918L228.121 29.8522C221.996 33.17 215.638 35.07 211.6 35.07V35.57ZM228.472 29.9791C226.942 26.1544 225.93 22.3478 225.93 18.68H225.43C225.43 22.4362 226.466 26.3095 228.008 30.1648L228.472 29.9791ZM225.93 18.68C225.93 14.3702 227.135 9.94576 229.624 6.60539C232.108 3.27293 235.876 1.01 241.04 1.01V0.509998C235.708 0.509998 231.796 2.85507 229.224 6.3066C226.657 9.75024 225.43 14.2858 225.43 18.68H225.93ZM241.04 1.01C247.43 1.01 252.31 5.89007 252.31 12.28H252.81C252.81 5.61393 247.706 0.509998 241.04 0.509998V1.01ZM252.31 12.28C252.31 16.4317 250.58 20.2833 247.898 23.7593C245.215 27.2358 241.59 30.3229 237.825 32.9387L238.111 33.3493C241.898 30.7171 245.569 27.5962 248.294 24.0647C251.02 20.5327 252.81 16.5763 252.81 12.28H252.31ZM237.743 33.2525C239.41 36.7146 241.46 40.5593 243.509 44.2728L243.947 44.0312C241.9 40.3207 239.854 36.4854 238.193 33.0355L237.743 33.2525ZM243.892 44.3411C248.614 40.2564 254.362 36.1687 261.008 32.2067L260.752 31.7773C254.086 35.7513 248.314 39.8556 243.564 43.9629L243.892 44.3411ZM261.009 32.2064C261.603 31.85 262.196 31.73 262.8 31.73V31.23C262.124 31.23 261.437 31.366 260.751 31.7776L261.009 32.2064Z" fill="#212121"/>
</svg>
